<<<<<<< HEAD
<mxfile host="app.diagrams.net" modified="2021-06-18T10:08:43.423Z" agent="5.0 (Windows)" etag="opZfs-H4bKHT636krumU" version="14.8.0" type="github" pages="5"><diagram id="vK23fTNrHjgwlGEkLI1I" name="Page-1">7Vxbj6M2FP41fmzFxRh4hFxaVVup0qy23UcmeBJaAhEhO8n++trGDmCcQGYCJJnJSCM4gAnn8p3vHJsAc7Le/5YFm9WfaYhjYGjhHphTYBgOssh/KjgUAgjtQrDMorAQ6aXgKfqJuVDj0l0U4m3txDxN4zza1IWLNEnwIq/JgixLX+unvaRx/a6bYIkbgqdFEDelf0dhvuKPZdil/HccLVfizjpyiyPrQJzMn2S7CsL0tSIyZ8CcZGmaF1vr/QTHVHdCL8V18xNHj18sw0ne5YIvX74tX/9Ill+/au76W3hwXg7BL8I8P4J4x58YzCzgzYHv0g1/AhyHf//8IJRCHmVDN3freJ4Fa7Lpv66iHD9tggWVvxJXILJVvo7Jnk42t3mW/ocnaZxmbAhTIx/XJUdeojgW8iRN6FhhsF3hkF/Jvx/Ocrw/+eT6UZ/ED3G6xnl2IKcIJ+QW4C6ITL7/WhrUErJVxZiIywLuQ8vjyKWayQbX9CVabypdVvEyS3cbST1EbfpzoGNDrVA0I2YjV6RJXpG/sM85RfLQCZ7FvbVLFawbdQ3rdlPD0FFo2OhLw6bCrW3gzIDH3NqbAR95DaVXHHYAvVf1e9pNmkqvKFVHQyoVKpXqm8D32YYP3Pmd6nQv6XM0HavwWHZc/76VbBpjK9lux1+chB6lDyeyUkXhxaU4bPCIVvSs5h/F4wtZhuMgj37Uh1fphN/hrzQiNz6qW05/jiOpdZvusgXmV1UJRMtAujxQHmRLnDcGYiY6PvbbreZ8JKtBKFnNfaPV5IGGtpq4fdVKROtPfJebibCdJGR20shemuWrdJkmQfwlTTfcYv/iPD/wAiHY5Wndnngf5f/Qy3+1+N73ypHpno/Mdg5iJyGPVrmI7n6vHisvY3viOgWU2vP5/HhEFAqX+BlREDPoGU2Kkqgw2LkTodpzO7vku8BVfM2zcRrHpIDDUo3Aq4otecD8KQ9y3LlwIHJnQv+uUzDojlWLGUNrZixVwWD2lbD0zhVDjyTfqgPJEemqaVxTaEU3nL7UomakxD0oIyXV6xS4VkNRJdbo7YVrkC045kCtyZU09mk64xTO9Ll11n07uekZZzhfF6js0J8ZOvCp93vnRbo41JNxm2rsvlRjqPi8C0gOdgifR8DxGbGXGT6YOcCfA9enG54OCLCVXRlEWzJusytz935tX8WWvbm52VT5J5N5G5NxOjKZInzewWTYpaQkCA6VEzaU624rI0uU2ZQynQmlzqpcGGlnzycbxTe4Kq/WFeUQgQZ3DjyLoQbZYL1cdwI8h/VnPIopND9CJmE44tv3jCPnGYsp20VB44aFEKg3tN0rhFQApIQTNYSMBAXme2uVEyGJ6qaHplsfoueq1xrY0Bfkisc2NNK7tTcuzQmWKMGk+/SK8aaqvkGMK1oU2h1CEW0FM5zN6cSdohmfrdL18257rfk6InfdyYQ5zxXwGspBqyvwWjeaeG31Rvma2fFWwvjOKJ8ohFop33Vw4tLwblA49zzlk+FAOr8nOHA/vfFKBQjs6I0Fyx7bG40Wb5QLFmMIb4SGOjn5wDXEdPC0Q9uC5ItcqiniaJmQ7QWxKyZ+4dOsEi2C2OMH1lEYxszX8Tb6ybtG1J24Ysm4lg+sKR2LuPe28PRmXuMRc4XUZZpS6lLMcQ47V9/se95KpVFiRQ0pSuC4LayAZkesGKdZoevqSucUVsjnmwgOgBWfrbOhvRGe6KYOMwkIVQuwEIV/kg1oU0oDHhKdcI3VMqxBdV8Fiw5hPfZGL1igYqLwqO6HzLzSVK0g4m1Ttf0l3i6Li85Nf+MkFJPfkuvaHv3ru2sqT35bY09+C3KrxJKH9GlDq5sAImdcp7ZOcP22RtRDWkfm+pYCcoZdMwpvll2NxJIs853k50RdLnFnBLs1m682q6BiVcVLGoxDeTYtvx9qpUBLrkJyKKImARt0hg8pTDREcF4SaGyBnVgnu4iD7TZaCPE8ii9dItslHrt2f60T63mGqVos1Wodh7Jnv+hkTYHA+o8QTUd4Gy+aFBNgw0RTpwgZK7uhrtHkjhlN4k3IUY3HB61abkxe0tVyaNTujaXqIhAy4TG6T0ovRNs1M0iZh6exxYoz4JqPi4zmKeI3GjJaiuD6QKlKXiowvkFsRZfihlJV880oIhkfENF9AKJ9uxX22+cv2rNkxWlKzyr9ZkQK1Nlv7Kt0Ai5eQSzBk90ygS83FuwhJvDtgaeIP536ak5t3INTW2M4NVJRVwc4Jl0HT4kqpOsiacvaAR7kZNabPi5TkqmrPfp7NEgxQ6ZYwyp+UIK+yzCjL0F9HBON/p6CbShMxKbcSKFHLEMix/cUcfWwJpLrDWd8EzXn829lgdd9Z+HrMMbmuitpjSYU+9d+UUFyVL22vKvtdPGt+iWeJxcHfVB0kRvvfaIL2S1/c66waPnDfebsfw==</diagram><diagram id="9PuYhCBiR76oPIFgIpEI" name="Page-2">7Vrbkps4EP0aPWYLEGD0CL4kW7VbO1WTqmweNUaxtRHIheWxPV+/LRA2IHK3wUk8L6NuJIG6T58jkBGeZofXBd2s/5YpE8hz0gPCM+R5roMj+Kc9x8oT4LByrAqemk5nxyN/YfVI493xlG1bHZWUQvFN27mUec6WquWjRSH37W4fpGjfdUNXzHI8Lqmwve94qtaVN/ImZ/8bxlfr+s5uSKorGa07m5Vs1zSV+4YLzxGeFlKqqpUdpkzo4NVxebvYP75dT7erV/nrdy9qGb88O6+qyRbfMuS0hILl6rJTe9XUz1TsTLzipZKFWbA61lGEtW90c5eJqgNOnlmhOMT5L/rExIPccsVlDl2epFIya3SIBV/pC0puwLtWmQDDheZWFfIjm0qh54O74OoPrnyQuTJQcgNtcyHqfrnMwZ+YB4d7sEMn018Ik3vKHYCeyYyp4gjj6llCk26D9xOQ92f0YONaN4BTD6MGr6vTzOecQMOk5RtSFFnJYCkg3JgmGoXc5SnT0zhgyUKt5UrmkBypg15G+z+m1NEEle6UbOeCHbj61wzX7fe6/UdgrNmhcWl2NEY3S1tFCxXrmj0/WOlbcL3kaoI87fQAT+N6hYm6UntR4jhO4MQnCOhofAcAIKJyVyzZZ/r5/UApmKCKP7dv2pd2M/RBcnicE8A8pwMwp4MciNiKKTOqA57TY3w/nnyr5NE8RGSB4gDNJ4hMUZSgeaAbcaQ9SYySRXnJLz0hiiKUTGxYCgGkrlO6X3PFHje0jO4edOWr696u8ybI/CvWPXbbaXEdu+5BHAYsfHIvfKvwiesNUPjBMIXvDVv47rBK4t4EoPrgY0Pt5wRUEHQAhYcFVNCjJARFDopIqRIJikmPbswjrSck0Y3YRdFUq028QAkxfUgPUH8tbYnG1hbX/w3F5Ta4IBxGXIKBxWXY3cpdXK4NKEtculx0ZUCFva8pMS7fTiZaPkAmQEGIg5JZqSAz3b6ccLjOBJM+lWgKCfQjZDpdLAZUj1MmxlOP4K4eIxX7ZBj1mAxb7JOeYvdREqFo3t4ckrL87Q2kr79SxL7ukwQocm18/no8gP3RecAm6d/983EwubHPx7hHE6/J1Sd+ft+k516u1sYDKzgslBWX4e8nIZcfb5rAG0dHF92udXCHB/6qXH/LGocKbNR8ihpyWd6lHjcgMXwFew9LDD0ieSeGEYnhE/j5UWIgIxOD+3MQg6aCf2BXyJUOlD79wQmsnc5Trmo4QZM+lc9bIXtD89QYo/FK6N0Yr3jhmLzyhdfDPmaB6BfHxlTarOaqkFE6ztOV1rFpXZiqbv4dtEZcxRzX3Ov8GBDtt8r4T7AfBD0ym3+gLlUbYtSwyhLCxpp8VNNNxtNUlGhmW/5iqEFna6PZtFxPkKBgpucCAG8NJqx09hxHBNfcipCgRRl+z1F31EMZ3fPKy2WKWJl6s8tofk8WJKezse9LlusOmS3sWdka/RckN/uRZvyfkYCG2em6uWPa203gFc9qwTz/fLTacJ9/hIvn/wM=</diagram><diagram id="NvYBOcFq6Gu9QiGmxLdd" name="Page-3">7VnLdpswEP0aLdvDG2kJtmkWbZo2iz42PRgUW6lALsixna/vCIQNhrZJToJzmmQTaTSS0Ny5Vw8je5Jt3xXxavlBpJQjy0i3yJ4iyzING8M/ZdnVFtf2asOiYKl2Ohgu2S1temrrmqW07DhKIbhkq64xEXlOE9mxxUUhNl23K8G7s67iBe0ZLpOY961fWCqXtRVb/sF+Rtli2cxseqRuyeLGWa+kXMap2LRM9gzZk0IIWZey7YRyFbwmLuvw/CL5/CmPjNj4IebmWZIkb+rBovt02S+hoLl88NDcKRPhrK+98maBv4bfz6OPv3QX4ybmax2vIJGi0AuWuyaKsPaVKq4zXjvY4Q0tJIM4v4/nlF+IkkkmcnCZCylF1nIIOFuoBilWYF3KjEPFhGIpC/GTTgRX48Esdv0HLVcilzqVTFfVGeeNXy5ysIe5qCbWQ+llwIx0e4T7P4Jm7pEEClCRUVnsoF8ziqcjpLN/n9abQy7Z2rRspVHTLdbZu9iPfEAIChqkewBm9qChKeS7rurYFGKdp1QNY0BNFHIpFiIHqISCoArYNZVyp0Mcr6XoIkO3TH7V3VX5myq/dXVtum01TXe6coxZKeNCBorBhw+rbBFTS64HyNMjD7C02usMaXg7mDOGYbhGsE8BFY0HJABEVKyLhP4l8tZwohSUx5LddCcdgl13vRAMPmefYJZxlGDGUeZAxBZU6l5HybP/jIfnk9UTADTzEIlQ4KKZj8gE4RDNXFUIsLKEAQqjqsmpLB7CGIV+Py05B4lXkG6WTNLLVVxFdwO7zJ1VoM/6dpI5T8h72+zCYhp93sNWMSLx7Vfi94hPTGsE4jvjEN8al/jOAPEJwgbCpCJ1iAIyQPMZVvQnoSoEJsITJQ5BhEKifQj+36UAn1oK3BcoBUPE74vEU0uBN44UuONKgTcgBb7iODErUs9Q4FenAjgMTBXfcaC4r04FpBKHWhOMgyY8ngKYhm+TIbq3FQH8CJlMomhEGdjT+2QyMHDmepWBUWQAjyMD/rgygIevAn8iPVwFQhQ6lUJAk/MSSG87pyY9GdTqYFZh4ysRxt7I97Vni9bpL21m/31tGK5wiohdsYxouh2dqVUTFHy9xwaPecp+vgCe/Khtmj0AgzRjeS/6EAnZDXOsnz0TiAhtP5g276EZS1Ne7dG0ZLfxvBpKbXUrpfDVStwQuVM1FmzLpQamh+DAfch9yidRxx3eplogeQNPosf32ztgBNXD83q9zR1+pLBnvwE=</diagram><diagram id="2yLUp7-KwF4lNBSugV51" name="Page-4">7Zpbc6s2EMc/jR7jkRAX8Qg2bqdnmjnTTCc9j8Qohh6MPKDEdj59JW7mIo9j+2AmtfMSaTEL7H/1Y1c2wNPV9rfUX4d/soDGQIPBFuAZ0DQEMRH/pGVXWAxsFoZlGgXlh/aGp+iDVmeW1rcooFnrg5yxmEfrtnHBkoQueMvmpynbtD/2yuL2Vdf+kvYMTws/7lufo4CHhZVo1t7+O42WYXVlZNrFkZVffbh8kiz0A7ZpmLAH8DRljBej1XZKYxm8Ki5eYO+cR2uWPrFNGD1zwh/Dh8LZ/JRT6kdIacLPdv2Nmd+iv9Y/P+bP/67WWbglJHtAeuH73Y/fyoCVD8t3VQRpEjhSCDFLWCKMbuBnIZVukZiEfBWXw1eW8DIDkCHmGU/ZzzrsqLZMWczS3DmGEIocE0eKy9Kgp+aRh0a1EiKFKVtRnu7EeZu91kapX9iQubKlNPZ59N6+pl+m3LJ2V1/hO4vE3WiwXB66bhSnlIvDtOy2i4y9pQtantUUp+dIn7RdoeoWK1fcT5eU91yJQePB96Zc/RMywbonwgWJoNmwkwjwvETQiN1NBB0NlQhwDpd/vyePm0T7Y5ssH14Sa1tSpJUIngWIBxwbeAZwPOCaTi83muJHcdwQFr34iGpqyU3PmZfp0rC/5n91KrzTlNPtL0mGKsiorRbC5byRLMhUZIsGDydGS4dTg46UQXcxcN184AJ7/rVjjq0RY64kHj5OvEaE13K95bdguMCYSQtNI3EnVEaQpTxkS5b48fe99QAGG1Ev/sQRGe9IFC1OHC0TcWwVBYG8ieGWgNWhjNmXAyvU0M2h5EAK8NyOHjruLA/yOT3sweRQIOl25ajjPJoc2l2OvRw6HFuOm355dOUw0NhyGMflaHQvi9jPsmjxmZ5F1aH0uxm6jfg/cjyBplXOf4g5nEBSzWcyeLCa7BqThuqFLRExke4e4ARV88KdJmUpDHt/+WzXnHU9gkt6KhHFvHk5XkoVncnRd/xYTRomHajrZzZpvZd1N7EH7tWR2U93z5QtgmPIdsGeApL3DbYOHCIPEQJcS7ZvYmCLAQEOkoe6i0SAgreXhV9CZSEyJefSQdqkNIs+/JfcFVRCz3/jLCuXWG+FlVsK3WU4FMNwtwdUFFwIXbMfQadtwQwGsYo6NcP0AjonMWxo4lTKHEUOHpU4Woc45EzidLvn+vV6LeIQBXEEU+YSMQIrtgts706ck4hTk2Q04lSOxybO/7JsGo050JpA1Mo0rBkTqJ1Z61TflNW+9IlNrgofTbU72i93DODMgWuX8BH3eIfPYfhgaIwNn0/saNxGuTPat5fdpa1rvaX96QIFGkd9DY0JxZ6Moka5Y+IUTOijY+K0Xyjca5SvQB6RZt0aRccX1Cjd7WF8/RpFsQOpqFHMfDDLmeNI2kgu2XnLZEmLa+ZcgoCgXpbfEIUgaeuJFBTSrkohxY7bvVi5arHSXePGJcUKOepraF4oNvsUxcqdF2fxwhidF4r9snvV8sURJNKsW7UY+iU7K6Tj6/pVi62uWg4zx3WBq+fMEYf0W2aO1skErc8c+9cgR0z3vzIvpN//Vh97/wE=</diagram><diagram id="ycTywWH3n9vURscVJjlH" name="Page-5">7VrLctMwFP0aL8vYlq3YyyRNKAzMMJQBulRj1RbYlqsoTcLXI0XyQ5anQEjSwKQbS1fStXXOuVeP1AHTYvOaoSp7TxOcO76bbBxw7fi+54JIPKRlqywhgMqQMpLoTq3hlvzA9UhtXZEEL42OnNKck8o0LmhZ4gU3bIgxuja7PdDcfGuFUmwZbhcot61fSMIzZY38UWu/wSTN6jd7MFYtBao765ksM5TQdccEZg6YMkq5KhWbKc4leDUud3dk/uNpdvOYvHmbfQXhzfIzu1LO5n8ypJkCwyU/rGtfuX5C+UrjNV5wyvSE+bZGUcy9ksVVkasOYPKEGScC53foHucf6JJwQkvR5Z5yTotOh3FOUtnAaSWsGS9yUfFEka54Tko8bZh3hVF/kBiLNz0GfzF9r+FEiBnTAnO2FeO0F+CFyo/WMYg1retWFUCbso4goLYhrcO08dxiLQoa7j+AHljQW6gzuioTnGhk1hnh+LZCC9m6FtFqopmgZbbr6x0RRa8Oa42iH9ooBieFMbBQw4lIALpa0lI8JiaQlPGMprQU2qVSkzvEvmHOtzp9oRWnJrh4Q/hXOfxVqGt3nZbrjfa8q2x1ZckR42OZwoSBVrj8lJGyts+JnKYaVCZ1L/25wtJpVxOUs9qDSYEMXbEFfqZfOMw4wzni5Ml86RB9eugHSsTntPHmmkoBMTRdCBRSzPWongiaz9hfF6EdXrOREwfOOHJm0IkiZzJyZqEsxKIQOWNPNv1VCB4t6mAv6qAddZ47EHXBsaIODiQvmHOp7gqVBoTwcSVXSIXd1VKBN5agMNy2ilKqn7l6zpUnbRZMjefOJNbcxdG/wp0fnRt3o4HIgE48daLrHahjCacoxPEuVkbSMoE74F0n8s4T5sA9N5htPZ7lwqQ/5JlFqbN0HXBhOviC47uBueDU9dqFWgitBcd2FJuOGmmdaOWKrfi0Y064EQco/Ot4Q8tK7a0fyEbqTBDN6PfmKCTAnDzQks9RQXI5308oowVSeXxBynSid/PXQWv7qKNnN1jIYUpzeSIQ3wXuvSR5cJvX1C1aZEfLsX5vrzGwK/UHYt8/VuzXu+QOh/bu/sKhwWEITQ7rE/qLcTgQdUdI4P9nMgZ+Pxn3aPrdZGw5ik6bjL2BuD22Cl7qrHh4FQD3QCroOzq1CuzLGnDJ58/mc+v8H7z0mhxYHA7cHV047HII4JlxGF7W5L2zcRB4r0Dnz++Ru3dyDiPD0anPSx68LNF/IYr4eVHseYgGEPZEEZxWFPYt10DuuGT7brbv3VQ2m64Xy/aRxeFAqF847F6D1jvV5ibEOxaHotr+9q3Ctv0PAjD7CQ==</diagram></mxfile>
=======
<mxfile host="app.diagrams.net" modified="2021-06-18T16:54:07.107Z" agent="5.0 (Windows)" etag="9ECGvTK2jUCiV6tajHmC" version="14.8.0" type="github" pages="6">
  <diagram id="vK23fTNrHjgwlGEkLI1I" name="Page-1">
    <mxGraphModel dx="1038" dy="536" grid="1" gridSize="10" guides="1" tooltips="1" connect="1" arrows="1" fold="1" page="1" pageScale="1" pageWidth="827" pageHeight="1169" math="0" shadow="0">
      <root>
        <mxCell id="0" />
        <mxCell id="1" parent="0" />
        <mxCell id="LLVgwJngTT09mVdy8fya-65" value="对弈" style="shape=umlFrame;whiteSpace=wrap;html=1;strokeColor=#000099;fillColor=none;dashed=1;" parent="1" vertex="1">
          <mxGeometry x="80" y="630" width="530" height="60" as="geometry" />
        </mxCell>
        <mxCell id="LLVgwJngTT09mVdy8fya-6" value="" style="group;fillColor=#1ba1e2;strokeColor=#006EAF;fontColor=#ffffff;" parent="1" vertex="1" connectable="0">
          <mxGeometry x="120" y="170" width="480" height="20" as="geometry" />
        </mxCell>
        <mxCell id="LLVgwJngTT09mVdy8fya-3" value="玩家A" style="html=1;fillColor=#1ba1e2;strokeColor=#006EAF;fontColor=#ffffff;" parent="LLVgwJngTT09mVdy8fya-6" vertex="1">
          <mxGeometry width="160" height="20" as="geometry" />
        </mxCell>
        <mxCell id="LLVgwJngTT09mVdy8fya-4" value="系统" style="html=1;fillColor=#1ba1e2;strokeColor=#006EAF;fontColor=#ffffff;" parent="LLVgwJngTT09mVdy8fya-6" vertex="1">
          <mxGeometry x="160" width="160" height="20" as="geometry" />
        </mxCell>
        <mxCell id="LLVgwJngTT09mVdy8fya-5" value="玩家B" style="html=1;fillColor=#1ba1e2;strokeColor=#006EAF;fontColor=#ffffff;" parent="LLVgwJngTT09mVdy8fya-6" vertex="1">
          <mxGeometry x="320" width="160" height="20" as="geometry" />
        </mxCell>
        <mxCell id="LLVgwJngTT09mVdy8fya-7" value="" style="endArrow=none;dashed=1;html=1;" parent="1" edge="1">
          <mxGeometry width="50" height="50" relative="1" as="geometry">
            <mxPoint x="280" y="880" as="sourcePoint" />
            <mxPoint x="280" y="180" as="targetPoint" />
          </mxGeometry>
        </mxCell>
        <mxCell id="LLVgwJngTT09mVdy8fya-8" value="" style="endArrow=none;dashed=1;html=1;" parent="1" edge="1">
          <mxGeometry width="50" height="50" relative="1" as="geometry">
            <mxPoint x="440" y="890" as="sourcePoint" />
            <mxPoint x="440" y="180" as="targetPoint" />
          </mxGeometry>
        </mxCell>
        <mxCell id="LLVgwJngTT09mVdy8fya-40" style="edgeStyle=none;rounded=0;orthogonalLoop=1;jettySize=auto;html=1;exitX=0.5;exitY=1;exitDx=0;exitDy=0;entryX=0.5;entryY=0;entryDx=0;entryDy=0;strokeColor=#007FFF;strokeWidth=1;" parent="1" source="LLVgwJngTT09mVdy8fya-10" target="LLVgwJngTT09mVdy8fya-14" edge="1">
          <mxGeometry relative="1" as="geometry" />
        </mxCell>
        <mxCell id="LLVgwJngTT09mVdy8fya-10" value="" style="ellipse;html=1;shape=startState;strokeColor=#000099;fillColor=#8C8C8C;" parent="1" vertex="1">
          <mxGeometry x="185" y="200" width="30" height="30" as="geometry" />
        </mxCell>
        <mxCell id="LLVgwJngTT09mVdy8fya-16" value="" style="group" parent="1" vertex="1" connectable="0">
          <mxGeometry x="150" y="250" width="100" height="128" as="geometry" />
        </mxCell>
        <mxCell id="LLVgwJngTT09mVdy8fya-14" value="登录" style="rounded=1;whiteSpace=wrap;html=1;arcSize=40;fontColor=#000000;fillColor=#D4E1F5;strokeColor=#000099;" parent="LLVgwJngTT09mVdy8fya-16" vertex="1">
          <mxGeometry width="100" height="28" as="geometry" />
        </mxCell>
        <mxCell id="LLVgwJngTT09mVdy8fya-17" value="" style="group" parent="LLVgwJngTT09mVdy8fya-16" vertex="1" connectable="0">
          <mxGeometry y="50" width="100" height="78" as="geometry" />
        </mxCell>
        <mxCell id="LLVgwJngTT09mVdy8fya-25" value="选择玩家进行对战" style="rounded=1;whiteSpace=wrap;html=1;arcSize=40;fontColor=#000000;fillColor=#D4E1F5;strokeColor=#000099;" parent="LLVgwJngTT09mVdy8fya-17" vertex="1">
          <mxGeometry y="50" width="100" height="28" as="geometry" />
        </mxCell>
        <mxCell id="LLVgwJngTT09mVdy8fya-38" style="edgeStyle=none;rounded=0;orthogonalLoop=1;jettySize=auto;html=1;exitX=0.5;exitY=1;exitDx=0;exitDy=0;entryX=0.5;entryY=0;entryDx=0;entryDy=0;strokeColor=#007FFF;strokeWidth=1;" parent="1" source="LLVgwJngTT09mVdy8fya-18" target="LLVgwJngTT09mVdy8fya-25" edge="1">
          <mxGeometry relative="1" as="geometry">
            <Array as="points">
              <mxPoint x="350" y="340" />
              <mxPoint x="200" y="340" />
            </Array>
          </mxGeometry>
        </mxCell>
        <mxCell id="LLVgwJngTT09mVdy8fya-18" value="查询在线用户" style="rounded=1;whiteSpace=wrap;html=1;arcSize=40;fontColor=#000000;fillColor=#D4E1F5;strokeColor=#000099;" parent="1" vertex="1">
          <mxGeometry x="300" y="300" width="100" height="28" as="geometry" />
        </mxCell>
        <mxCell id="LLVgwJngTT09mVdy8fya-41" style="edgeStyle=none;rounded=0;orthogonalLoop=1;jettySize=auto;html=1;exitX=0;exitY=0.5;exitDx=0;exitDy=0;strokeColor=#007FFF;strokeWidth=1;" parent="1" source="LLVgwJngTT09mVdy8fya-34" edge="1">
          <mxGeometry relative="1" as="geometry">
            <mxPoint x="260" y="439" as="targetPoint" />
          </mxGeometry>
        </mxCell>
        <mxCell id="LLVgwJngTT09mVdy8fya-51" style="edgeStyle=none;rounded=0;orthogonalLoop=1;jettySize=auto;html=1;exitX=0.5;exitY=1;exitDx=0;exitDy=0;strokeColor=#007FFF;strokeWidth=1;" parent="1" source="LLVgwJngTT09mVdy8fya-34" edge="1">
          <mxGeometry relative="1" as="geometry">
            <mxPoint x="260" y="610" as="targetPoint" />
            <Array as="points">
              <mxPoint x="516" y="610" />
            </Array>
          </mxGeometry>
        </mxCell>
        <mxCell id="LLVgwJngTT09mVdy8fya-34" value="接受对战？" style="rhombus;whiteSpace=wrap;html=1;strokeColor=#000099;fillColor=#99CCFF;" parent="1" vertex="1">
          <mxGeometry x="460" y="410" width="112" height="58" as="geometry" />
        </mxCell>
        <mxCell id="LLVgwJngTT09mVdy8fya-37" style="edgeStyle=none;rounded=0;orthogonalLoop=1;jettySize=auto;html=1;exitX=0.5;exitY=1;exitDx=0;exitDy=0;entryX=0.5;entryY=0;entryDx=0;entryDy=0;strokeColor=#007FFF;strokeWidth=1;" parent="1" source="LLVgwJngTT09mVdy8fya-25" target="LLVgwJngTT09mVdy8fya-34" edge="1">
          <mxGeometry relative="1" as="geometry">
            <Array as="points">
              <mxPoint x="200" y="390" />
              <mxPoint x="516" y="390" />
            </Array>
          </mxGeometry>
        </mxCell>
        <mxCell id="LLVgwJngTT09mVdy8fya-39" style="edgeStyle=none;rounded=0;orthogonalLoop=1;jettySize=auto;html=1;exitX=0.5;exitY=1;exitDx=0;exitDy=0;entryX=0.5;entryY=0;entryDx=0;entryDy=0;strokeColor=#007FFF;strokeWidth=1;" parent="1" source="LLVgwJngTT09mVdy8fya-14" target="LLVgwJngTT09mVdy8fya-18" edge="1">
          <mxGeometry relative="1" as="geometry">
            <Array as="points">
              <mxPoint x="200" y="290" />
              <mxPoint x="350" y="290" />
            </Array>
          </mxGeometry>
        </mxCell>
        <mxCell id="LLVgwJngTT09mVdy8fya-42" value="拒绝对战" style="text;html=1;align=center;verticalAlign=middle;resizable=0;points=[];autosize=1;strokeColor=none;" parent="1" vertex="1">
          <mxGeometry x="330" y="420" width="60" height="20" as="geometry" />
        </mxCell>
        <mxCell id="LLVgwJngTT09mVdy8fya-45" style="edgeStyle=none;rounded=0;orthogonalLoop=1;jettySize=auto;html=1;exitX=0;exitY=0.5;exitDx=0;exitDy=0;entryX=0;entryY=0.5;entryDx=0;entryDy=0;strokeColor=#007FFF;strokeWidth=1;" parent="1" source="LLVgwJngTT09mVdy8fya-43" target="LLVgwJngTT09mVdy8fya-25" edge="1">
          <mxGeometry relative="1" as="geometry">
            <Array as="points">
              <mxPoint x="110" y="439" />
              <mxPoint x="110" y="364" />
            </Array>
          </mxGeometry>
        </mxCell>
        <mxCell id="LLVgwJngTT09mVdy8fya-48" style="edgeStyle=none;rounded=0;orthogonalLoop=1;jettySize=auto;html=1;exitX=0.5;exitY=1;exitDx=0;exitDy=0;entryX=0.5;entryY=0;entryDx=0;entryDy=0;strokeColor=#007FFF;strokeWidth=1;" parent="1" source="LLVgwJngTT09mVdy8fya-43" target="LLVgwJngTT09mVdy8fya-47" edge="1">
          <mxGeometry relative="1" as="geometry" />
        </mxCell>
        <mxCell id="LLVgwJngTT09mVdy8fya-43" value="是否退出" style="rhombus;whiteSpace=wrap;html=1;strokeColor=#000099;fillColor=#99CCFF;" parent="1" vertex="1">
          <mxGeometry x="144" y="410" width="112" height="58" as="geometry" />
        </mxCell>
        <mxCell id="LLVgwJngTT09mVdy8fya-46" value="否" style="text;html=1;align=center;verticalAlign=middle;resizable=0;points=[];autosize=1;strokeColor=none;" parent="1" vertex="1">
          <mxGeometry x="85" y="390" width="30" height="20" as="geometry" />
        </mxCell>
        <mxCell id="LLVgwJngTT09mVdy8fya-47" value="" style="ellipse;html=1;shape=endState;fillColor=#7A7A7A;strokeColor=#000099;" parent="1" vertex="1">
          <mxGeometry x="185" y="500" width="30" height="30" as="geometry" />
        </mxCell>
        <mxCell id="LLVgwJngTT09mVdy8fya-50" value="是" style="text;html=1;align=center;verticalAlign=middle;resizable=0;points=[];autosize=1;strokeColor=none;" parent="1" vertex="1">
          <mxGeometry x="205" y="468" width="30" height="20" as="geometry" />
        </mxCell>
        <mxCell id="LLVgwJngTT09mVdy8fya-52" value="接受对战" style="text;html=1;align=center;verticalAlign=middle;resizable=0;points=[];autosize=1;strokeColor=none;" parent="1" vertex="1">
          <mxGeometry x="330" y="590" width="60" height="20" as="geometry" />
        </mxCell>
        <mxCell id="LLVgwJngTT09mVdy8fya-54" style="edgeStyle=none;rounded=0;orthogonalLoop=1;jettySize=auto;html=1;exitX=0.5;exitY=1;exitDx=0;exitDy=0;strokeColor=#007FFF;strokeWidth=1;" parent="1" source="LLVgwJngTT09mVdy8fya-53" edge="1">
          <mxGeometry relative="1" as="geometry">
            <mxPoint x="210" y="640" as="targetPoint" />
          </mxGeometry>
        </mxCell>
        <mxCell id="LLVgwJngTT09mVdy8fya-53" value="开始对战" style="rounded=1;whiteSpace=wrap;html=1;arcSize=40;fontColor=#000000;fillColor=#D4E1F5;strokeColor=#000099;" parent="1" vertex="1">
          <mxGeometry x="160" y="596" width="100" height="28" as="geometry" />
        </mxCell>
        <mxCell id="LLVgwJngTT09mVdy8fya-63" value="" style="edgeStyle=none;rounded=0;orthogonalLoop=1;jettySize=auto;html=1;strokeColor=#007FFF;strokeWidth=1;startArrow=classic;startFill=1;" parent="1" source="LLVgwJngTT09mVdy8fya-55" target="LLVgwJngTT09mVdy8fya-56" edge="1">
          <mxGeometry relative="1" as="geometry" />
        </mxCell>
        <mxCell id="LLVgwJngTT09mVdy8fya-55" value="落子" style="rounded=1;whiteSpace=wrap;html=1;arcSize=40;fontColor=#000000;fillColor=#D4E1F5;strokeColor=#000099;" parent="1" vertex="1">
          <mxGeometry x="160" y="640" width="100" height="28" as="geometry" />
        </mxCell>
        <mxCell id="LLVgwJngTT09mVdy8fya-64" value="" style="edgeStyle=none;rounded=0;orthogonalLoop=1;jettySize=auto;html=1;startArrow=classic;startFill=1;strokeColor=#007FFF;strokeWidth=1;" parent="1" source="LLVgwJngTT09mVdy8fya-56" target="LLVgwJngTT09mVdy8fya-59" edge="1">
          <mxGeometry relative="1" as="geometry" />
        </mxCell>
        <mxCell id="LLVgwJngTT09mVdy8fya-69" value="" style="edgeStyle=none;rounded=0;orthogonalLoop=1;jettySize=auto;html=1;startArrow=none;startFill=0;strokeColor=#007FFF;strokeWidth=1;" parent="1" source="LLVgwJngTT09mVdy8fya-56" target="LLVgwJngTT09mVdy8fya-67" edge="1">
          <mxGeometry relative="1" as="geometry" />
        </mxCell>
        <mxCell id="LLVgwJngTT09mVdy8fya-56" value="报文传输" style="rounded=1;whiteSpace=wrap;html=1;arcSize=40;fontColor=#000000;fillColor=#D4E1F5;strokeColor=#000099;" parent="1" vertex="1">
          <mxGeometry x="310" y="640" width="100" height="28" as="geometry" />
        </mxCell>
        <mxCell id="LLVgwJngTT09mVdy8fya-59" value="落子" style="rounded=1;whiteSpace=wrap;html=1;arcSize=40;fontColor=#000000;fillColor=#D4E1F5;strokeColor=#000099;" parent="1" vertex="1">
          <mxGeometry x="460" y="640" width="100" height="28" as="geometry" />
        </mxCell>
        <mxCell id="LLVgwJngTT09mVdy8fya-70" value="" style="edgeStyle=none;rounded=0;orthogonalLoop=1;jettySize=auto;html=1;startArrow=classic;startFill=1;endArrow=none;endFill=0;strokeColor=#007FFF;strokeWidth=1;" parent="1" source="LLVgwJngTT09mVdy8fya-66" target="LLVgwJngTT09mVdy8fya-67" edge="1">
          <mxGeometry relative="1" as="geometry" />
        </mxCell>
        <mxCell id="LLVgwJngTT09mVdy8fya-74" style="edgeStyle=none;rounded=0;orthogonalLoop=1;jettySize=auto;html=1;exitX=0.5;exitY=1;exitDx=0;exitDy=0;entryX=0.5;entryY=0;entryDx=0;entryDy=0;startArrow=none;startFill=0;endArrow=classic;endFill=1;strokeColor=#007FFF;strokeWidth=1;" parent="1" source="LLVgwJngTT09mVdy8fya-66" target="LLVgwJngTT09mVdy8fya-73" edge="1">
          <mxGeometry relative="1" as="geometry">
            <Array as="points">
              <mxPoint x="360" y="790" />
              <mxPoint x="210" y="790" />
            </Array>
          </mxGeometry>
        </mxCell>
        <mxCell id="LLVgwJngTT09mVdy8fya-75" style="edgeStyle=none;rounded=0;orthogonalLoop=1;jettySize=auto;html=1;exitX=0.5;exitY=1;exitDx=0;exitDy=0;entryX=0.5;entryY=0;entryDx=0;entryDy=0;startArrow=none;startFill=0;endArrow=classic;endFill=1;strokeColor=#007FFF;strokeWidth=1;" parent="1" source="LLVgwJngTT09mVdy8fya-66" target="LLVgwJngTT09mVdy8fya-72" edge="1">
          <mxGeometry relative="1" as="geometry">
            <Array as="points">
              <mxPoint x="360" y="790" />
              <mxPoint x="510" y="790" />
            </Array>
          </mxGeometry>
        </mxCell>
        <mxCell id="LLVgwJngTT09mVdy8fya-66" value="胜负判断" style="rounded=1;whiteSpace=wrap;html=1;arcSize=40;fontColor=#000000;fillColor=#D4E1F5;strokeColor=#000099;" parent="1" vertex="1">
          <mxGeometry x="310" y="750" width="100" height="28" as="geometry" />
        </mxCell>
        <mxCell id="LLVgwJngTT09mVdy8fya-67" value="对战统计" style="rounded=1;whiteSpace=wrap;html=1;arcSize=40;fontColor=#000000;fillColor=#D4E1F5;strokeColor=#000099;" parent="1" vertex="1">
          <mxGeometry x="310" y="700" width="100" height="28" as="geometry" />
        </mxCell>
        <mxCell id="LLVgwJngTT09mVdy8fya-72" value="显示胜负" style="rounded=1;whiteSpace=wrap;html=1;arcSize=40;fontColor=#000000;fillColor=#D4E1F5;strokeColor=#000099;" parent="1" vertex="1">
          <mxGeometry x="460" y="800" width="100" height="28" as="geometry" />
        </mxCell>
        <mxCell id="LLVgwJngTT09mVdy8fya-76" style="edgeStyle=none;rounded=0;orthogonalLoop=1;jettySize=auto;html=1;exitX=0;exitY=0.5;exitDx=0;exitDy=0;startArrow=none;startFill=0;endArrow=classic;endFill=1;strokeColor=#007FFF;strokeWidth=1;" parent="1" source="LLVgwJngTT09mVdy8fya-73" edge="1">
          <mxGeometry relative="1" as="geometry">
            <mxPoint x="150" y="450" as="targetPoint" />
            <Array as="points">
              <mxPoint x="50" y="814" />
              <mxPoint x="50" y="450" />
            </Array>
          </mxGeometry>
        </mxCell>
        <mxCell id="LLVgwJngTT09mVdy8fya-73" value="显示胜负" style="rounded=1;whiteSpace=wrap;html=1;arcSize=40;fontColor=#000000;fillColor=#D4E1F5;strokeColor=#000099;" parent="1" vertex="1">
          <mxGeometry x="160" y="800" width="100" height="28" as="geometry" />
        </mxCell>
      </root>
    </mxGraphModel>
  </diagram>
  <diagram id="9PuYhCBiR76oPIFgIpEI" name="Page-2">
    <mxGraphModel dx="1038" dy="536" grid="1" gridSize="10" guides="1" tooltips="1" connect="1" arrows="1" fold="1" page="1" pageScale="1" pageWidth="827" pageHeight="1169" math="0" shadow="0">
      <root>
        <mxCell id="TFwSThCsg-nGWztcAzv0-0" />
        <mxCell id="TFwSThCsg-nGWztcAzv0-1" parent="TFwSThCsg-nGWztcAzv0-0" />
        <mxCell id="TFwSThCsg-nGWztcAzv0-2" value="Actor" style="shape=umlActor;verticalLabelPosition=bottom;verticalAlign=top;html=1;strokeColor=#333333;fontSize=15;fillColor=none;" parent="TFwSThCsg-nGWztcAzv0-1" vertex="1">
          <mxGeometry x="160" y="210" width="30" height="60" as="geometry" />
        </mxCell>
        <mxCell id="TFwSThCsg-nGWztcAzv0-8" style="edgeStyle=none;rounded=0;orthogonalLoop=1;jettySize=auto;html=1;exitX=0;exitY=0.5;exitDx=0;exitDy=0;fontSize=15;startArrow=none;startFill=0;endArrow=none;endFill=0;strokeWidth=1;strokeColor=#00050A;" parent="TFwSThCsg-nGWztcAzv0-1" source="TFwSThCsg-nGWztcAzv0-4" edge="1">
          <mxGeometry relative="1" as="geometry">
            <mxPoint x="200" y="200" as="targetPoint" />
          </mxGeometry>
        </mxCell>
        <mxCell id="TFwSThCsg-nGWztcAzv0-4" value="查看在线用户" style="ellipse;whiteSpace=wrap;html=1;strokeColor=#333333;fillColor=none;fontSize=14;" parent="TFwSThCsg-nGWztcAzv0-1" vertex="1">
          <mxGeometry x="310" y="100" width="116" height="60" as="geometry" />
        </mxCell>
        <mxCell id="TFwSThCsg-nGWztcAzv0-9" style="edgeStyle=none;rounded=0;orthogonalLoop=1;jettySize=auto;html=1;exitX=0;exitY=0.5;exitDx=0;exitDy=0;fontSize=15;startArrow=none;startFill=0;endArrow=none;endFill=0;strokeWidth=1;strokeColor=#000912;" parent="TFwSThCsg-nGWztcAzv0-1" source="TFwSThCsg-nGWztcAzv0-5" edge="1">
          <mxGeometry relative="1" as="geometry">
            <mxPoint x="200" y="220" as="targetPoint" />
          </mxGeometry>
        </mxCell>
        <mxCell id="TFwSThCsg-nGWztcAzv0-18" style="edgeStyle=none;rounded=0;orthogonalLoop=1;jettySize=auto;html=1;exitX=1;exitY=0.5;exitDx=0;exitDy=0;fontSize=15;startArrow=none;startFill=0;endArrow=none;endFill=0;strokeColor=#000912;strokeWidth=1;" parent="TFwSThCsg-nGWztcAzv0-1" source="TFwSThCsg-nGWztcAzv0-5" edge="1">
          <mxGeometry relative="1" as="geometry">
            <mxPoint x="550" y="230" as="targetPoint" />
          </mxGeometry>
        </mxCell>
        <mxCell id="TFwSThCsg-nGWztcAzv0-5" value="选择用户进行对战" style="ellipse;whiteSpace=wrap;html=1;strokeColor=#333333;fillColor=none;fontSize=14;" parent="TFwSThCsg-nGWztcAzv0-1" vertex="1">
          <mxGeometry x="310" y="180" width="116" height="60" as="geometry" />
        </mxCell>
        <mxCell id="TFwSThCsg-nGWztcAzv0-14" style="edgeStyle=none;rounded=0;orthogonalLoop=1;jettySize=auto;html=1;exitX=0;exitY=0.5;exitDx=0;exitDy=0;fontSize=15;startArrow=none;startFill=0;endArrow=none;endFill=0;strokeColor=#000912;strokeWidth=1;" parent="TFwSThCsg-nGWztcAzv0-1" source="TFwSThCsg-nGWztcAzv0-6" edge="1">
          <mxGeometry relative="1" as="geometry">
            <mxPoint x="200" y="250" as="targetPoint" />
          </mxGeometry>
        </mxCell>
        <mxCell id="TFwSThCsg-nGWztcAzv0-19" style="edgeStyle=none;rounded=0;orthogonalLoop=1;jettySize=auto;html=1;exitX=1;exitY=0.5;exitDx=0;exitDy=0;fontSize=15;startArrow=none;startFill=0;endArrow=none;endFill=0;strokeColor=#000912;strokeWidth=1;" parent="TFwSThCsg-nGWztcAzv0-1" source="TFwSThCsg-nGWztcAzv0-6" edge="1">
          <mxGeometry relative="1" as="geometry">
            <mxPoint x="550" y="260" as="targetPoint" />
          </mxGeometry>
        </mxCell>
        <mxCell id="TFwSThCsg-nGWztcAzv0-6" value="棋盘落子" style="ellipse;whiteSpace=wrap;html=1;strokeColor=#10739e;fontSize=14;fillColor=#99CCFF;" parent="TFwSThCsg-nGWztcAzv0-1" vertex="1">
          <mxGeometry x="310" y="260" width="116" height="60" as="geometry" />
        </mxCell>
        <mxCell id="TFwSThCsg-nGWztcAzv0-15" style="edgeStyle=none;rounded=0;orthogonalLoop=1;jettySize=auto;html=1;exitX=0;exitY=0.5;exitDx=0;exitDy=0;fontSize=15;startArrow=none;startFill=0;endArrow=none;endFill=0;strokeColor=#000912;strokeWidth=1;" parent="TFwSThCsg-nGWztcAzv0-1" source="TFwSThCsg-nGWztcAzv0-7" edge="1">
          <mxGeometry relative="1" as="geometry">
            <mxPoint x="200" y="270" as="targetPoint" />
          </mxGeometry>
        </mxCell>
        <mxCell id="TFwSThCsg-nGWztcAzv0-7" value="与对手进行交流" style="ellipse;whiteSpace=wrap;html=1;strokeColor=#10739e;fontSize=14;fillColor=#99CCFF;" parent="TFwSThCsg-nGWztcAzv0-1" vertex="1">
          <mxGeometry x="310" y="340" width="116" height="60" as="geometry" />
        </mxCell>
        <mxCell id="TFwSThCsg-nGWztcAzv0-16" value="Actor" style="shape=umlActor;verticalLabelPosition=bottom;verticalAlign=top;html=1;strokeColor=#333333;fontSize=15;fillColor=none;" parent="TFwSThCsg-nGWztcAzv0-1" vertex="1">
          <mxGeometry x="570" y="210" width="30" height="60" as="geometry" />
        </mxCell>
        <mxCell id="TFwSThCsg-nGWztcAzv0-30" style="edgeStyle=none;rounded=0;orthogonalLoop=1;jettySize=auto;html=1;exitX=0.5;exitY=0;exitDx=0;exitDy=0;exitPerimeter=0;fontSize=15;startArrow=none;startFill=0;endArrow=block;endFill=0;strokeColor=#000912;strokeWidth=1;" parent="TFwSThCsg-nGWztcAzv0-1" source="TFwSThCsg-nGWztcAzv0-20" edge="1">
          <mxGeometry relative="1" as="geometry">
            <mxPoint x="570" y="300" as="targetPoint" />
          </mxGeometry>
        </mxCell>
        <mxCell id="TFwSThCsg-nGWztcAzv0-20" value="Actor" style="shape=umlActor;verticalLabelPosition=bottom;verticalAlign=top;html=1;fontSize=15;strokeColor=#333333;noLabel=1;fillColor=none;" parent="TFwSThCsg-nGWztcAzv0-1" vertex="1">
          <mxGeometry x="510" y="340" width="30" height="60" as="geometry" />
        </mxCell>
        <mxCell id="TFwSThCsg-nGWztcAzv0-31" style="edgeStyle=none;rounded=0;orthogonalLoop=1;jettySize=auto;html=1;exitX=0.5;exitY=0;exitDx=0;exitDy=0;exitPerimeter=0;fontSize=15;startArrow=none;startFill=0;endArrow=block;endFill=0;strokeColor=#000912;strokeWidth=1;" parent="TFwSThCsg-nGWztcAzv0-1" source="TFwSThCsg-nGWztcAzv0-21" edge="1">
          <mxGeometry relative="1" as="geometry">
            <mxPoint x="590" y="300" as="targetPoint" />
          </mxGeometry>
        </mxCell>
        <mxCell id="TFwSThCsg-nGWztcAzv0-21" value="Actor" style="shape=umlActor;verticalLabelPosition=bottom;verticalAlign=top;html=1;fontSize=15;strokeColor=#333333;fillOpacity=100;metaEdit=0;editable=1;expand=1;noLabel=1;fillColor=none;" parent="TFwSThCsg-nGWztcAzv0-1" vertex="1">
          <mxGeometry x="620" y="340" width="30" height="60" as="geometry" />
        </mxCell>
        <mxCell id="TFwSThCsg-nGWztcAzv0-26" style="edgeStyle=none;rounded=0;orthogonalLoop=1;jettySize=auto;html=1;exitX=0.5;exitY=0.5;exitDx=0;exitDy=0;exitPerimeter=0;entryX=0.5;entryY=0.333;entryDx=0;entryDy=0;entryPerimeter=0;fontSize=15;startArrow=none;startFill=0;endArrow=none;endFill=0;strokeColor=#000912;strokeWidth=1;" parent="TFwSThCsg-nGWztcAzv0-1" source="TFwSThCsg-nGWztcAzv0-20" target="TFwSThCsg-nGWztcAzv0-20" edge="1">
          <mxGeometry relative="1" as="geometry" />
        </mxCell>
        <mxCell id="TFwSThCsg-nGWztcAzv0-27" value="AI Player" style="text;html=1;align=center;verticalAlign=middle;resizable=0;points=[];autosize=1;strokeColor=none;fontSize=15;" parent="TFwSThCsg-nGWztcAzv0-1" vertex="1">
          <mxGeometry x="595" y="400" width="80" height="20" as="geometry" />
        </mxCell>
        <mxCell id="TFwSThCsg-nGWztcAzv0-29" value="Human Player" style="text;html=1;align=center;verticalAlign=middle;resizable=0;points=[];autosize=1;strokeColor=none;fontSize=15;" parent="TFwSThCsg-nGWztcAzv0-1" vertex="1">
          <mxGeometry x="470" y="400" width="110" height="20" as="geometry" />
        </mxCell>
        <mxCell id="TFwSThCsg-nGWztcAzv0-32" value="查看在线用户" style="ellipse;whiteSpace=wrap;html=1;strokeColor=#10739e;fontSize=14;fillColor=#99CCFF;" parent="TFwSThCsg-nGWztcAzv0-1" vertex="1">
          <mxGeometry x="310" y="100" width="116" height="60" as="geometry" />
        </mxCell>
        <mxCell id="TFwSThCsg-nGWztcAzv0-33" value="选择用户进行对战" style="ellipse;whiteSpace=wrap;html=1;strokeColor=#10739e;fontSize=14;fillColor=#99CCFF;" parent="TFwSThCsg-nGWztcAzv0-1" vertex="1">
          <mxGeometry x="310" y="180" width="116" height="60" as="geometry" />
        </mxCell>
      </root>
    </mxGraphModel>
  </diagram>
  <diagram id="NvYBOcFq6Gu9QiGmxLdd" name="Page-3">
    <mxGraphModel dx="1038" dy="536" grid="1" gridSize="10" guides="1" tooltips="1" connect="1" arrows="1" fold="1" page="1" pageScale="1" pageWidth="827" pageHeight="1169" math="0" shadow="0">
      <root>
        <mxCell id="uBNPcRQnF0a0_ob1Hccc-0" />
        <mxCell id="uBNPcRQnF0a0_ob1Hccc-1" parent="uBNPcRQnF0a0_ob1Hccc-0" />
        <mxCell id="l4sco4uj6svg8XBZNFOq-0" value="Actor" style="shape=umlActor;verticalLabelPosition=bottom;verticalAlign=top;html=1;strokeColor=#333333;fontSize=15;fillColor=none;noLabel=1;" parent="uBNPcRQnF0a0_ob1Hccc-1" vertex="1">
          <mxGeometry x="160" y="210" width="30" height="60" as="geometry" />
        </mxCell>
        <mxCell id="l4sco4uj6svg8XBZNFOq-1" style="edgeStyle=none;rounded=0;orthogonalLoop=1;jettySize=auto;html=1;exitX=0;exitY=0.5;exitDx=0;exitDy=0;fontSize=15;startArrow=none;startFill=0;endArrow=none;endFill=0;strokeWidth=1;strokeColor=#00050A;" parent="uBNPcRQnF0a0_ob1Hccc-1" source="l4sco4uj6svg8XBZNFOq-2" edge="1">
          <mxGeometry relative="1" as="geometry">
            <mxPoint x="200" y="200" as="targetPoint" />
          </mxGeometry>
        </mxCell>
        <mxCell id="l4sco4uj6svg8XBZNFOq-2" value="查看在线用户" style="ellipse;whiteSpace=wrap;html=1;strokeColor=#333333;fillColor=none;fontSize=14;" parent="uBNPcRQnF0a0_ob1Hccc-1" vertex="1">
          <mxGeometry x="310" y="100" width="116" height="60" as="geometry" />
        </mxCell>
        <mxCell id="l4sco4uj6svg8XBZNFOq-3" style="edgeStyle=none;rounded=0;orthogonalLoop=1;jettySize=auto;html=1;exitX=0;exitY=0.5;exitDx=0;exitDy=0;fontSize=15;startArrow=none;startFill=0;endArrow=none;endFill=0;strokeWidth=1;strokeColor=#000912;" parent="uBNPcRQnF0a0_ob1Hccc-1" source="l4sco4uj6svg8XBZNFOq-4" edge="1">
          <mxGeometry relative="1" as="geometry">
            <mxPoint x="200" y="220" as="targetPoint" />
          </mxGeometry>
        </mxCell>
        <mxCell id="l4sco4uj6svg8XBZNFOq-4" value="选择用户进行对战" style="ellipse;whiteSpace=wrap;html=1;strokeColor=#333333;fillColor=none;fontSize=14;" parent="uBNPcRQnF0a0_ob1Hccc-1" vertex="1">
          <mxGeometry x="310" y="180" width="116" height="60" as="geometry" />
        </mxCell>
        <mxCell id="l4sco4uj6svg8XBZNFOq-5" style="edgeStyle=none;rounded=0;orthogonalLoop=1;jettySize=auto;html=1;exitX=0;exitY=0.5;exitDx=0;exitDy=0;fontSize=15;startArrow=none;startFill=0;endArrow=none;endFill=0;strokeColor=#000912;strokeWidth=1;" parent="uBNPcRQnF0a0_ob1Hccc-1" source="l4sco4uj6svg8XBZNFOq-6" edge="1">
          <mxGeometry relative="1" as="geometry">
            <mxPoint x="200" y="250" as="targetPoint" />
          </mxGeometry>
        </mxCell>
        <mxCell id="l4sco4uj6svg8XBZNFOq-6" value="监控服务器运行" style="ellipse;whiteSpace=wrap;html=1;strokeColor=#10739e;fontSize=14;fillColor=#99CCFF;" parent="uBNPcRQnF0a0_ob1Hccc-1" vertex="1">
          <mxGeometry x="310" y="260" width="116" height="60" as="geometry" />
        </mxCell>
        <mxCell id="l4sco4uj6svg8XBZNFOq-7" style="edgeStyle=none;rounded=0;orthogonalLoop=1;jettySize=auto;html=1;exitX=0;exitY=0.5;exitDx=0;exitDy=0;fontSize=15;startArrow=none;startFill=0;endArrow=none;endFill=0;strokeColor=#000912;strokeWidth=1;" parent="uBNPcRQnF0a0_ob1Hccc-1" source="l4sco4uj6svg8XBZNFOq-8" edge="1">
          <mxGeometry relative="1" as="geometry">
            <mxPoint x="200" y="270" as="targetPoint" />
          </mxGeometry>
        </mxCell>
        <mxCell id="l4sco4uj6svg8XBZNFOq-8" value="服务器维护" style="ellipse;whiteSpace=wrap;html=1;strokeColor=#10739e;fontSize=14;fillColor=#99CCFF;" parent="uBNPcRQnF0a0_ob1Hccc-1" vertex="1">
          <mxGeometry x="310" y="340" width="116" height="60" as="geometry" />
        </mxCell>
        <mxCell id="l4sco4uj6svg8XBZNFOq-9" value="管理在线用户" style="ellipse;whiteSpace=wrap;html=1;strokeColor=#10739e;fontSize=14;fillColor=#99CCFF;" parent="uBNPcRQnF0a0_ob1Hccc-1" vertex="1">
          <mxGeometry x="310" y="100" width="116" height="60" as="geometry" />
        </mxCell>
        <mxCell id="l4sco4uj6svg8XBZNFOq-10" value="管理当前对战列表" style="ellipse;whiteSpace=wrap;html=1;strokeColor=#10739e;fontSize=14;fillColor=#99CCFF;" parent="uBNPcRQnF0a0_ob1Hccc-1" vertex="1">
          <mxGeometry x="310" y="180" width="116" height="60" as="geometry" />
        </mxCell>
        <mxCell id="l4sco4uj6svg8XBZNFOq-11" value="Admin" style="text;html=1;align=center;verticalAlign=middle;resizable=0;points=[];autosize=1;strokeColor=none;fontSize=15;" parent="uBNPcRQnF0a0_ob1Hccc-1" vertex="1">
          <mxGeometry x="145" y="270" width="60" height="20" as="geometry" />
        </mxCell>
      </root>
    </mxGraphModel>
  </diagram>
  <diagram id="2yLUp7-KwF4lNBSugV51" name="Page-4">
    <mxGraphModel dx="1038" dy="536" grid="1" gridSize="10" guides="1" tooltips="1" connect="1" arrows="1" fold="1" page="1" pageScale="1" pageWidth="827" pageHeight="1169" math="0" shadow="0">
      <root>
        <mxCell id="Ed9yAN7DrSowhiWt8tNh-0" />
        <mxCell id="Ed9yAN7DrSowhiWt8tNh-1" parent="Ed9yAN7DrSowhiWt8tNh-0" />
        <mxCell id="Ko6KiRpkzFWjmpshx88s-14" value="" style="endArrow=none;dashed=1;html=1;fontSize=15;strokeWidth=1;strokeColor=#000103;" parent="Ed9yAN7DrSowhiWt8tNh-1" edge="1">
          <mxGeometry width="50" height="50" relative="1" as="geometry">
            <mxPoint x="445" y="679" as="sourcePoint" />
            <mxPoint x="444.5" y="150" as="targetPoint" />
          </mxGeometry>
        </mxCell>
        <mxCell id="Ko6KiRpkzFWjmpshx88s-7" value="" style="endArrow=none;dashed=1;html=1;fontSize=15;strokeWidth=1;strokeColor=#000103;" parent="Ed9yAN7DrSowhiWt8tNh-1" edge="1">
          <mxGeometry width="50" height="50" relative="1" as="geometry">
            <mxPoint x="290" y="670" as="sourcePoint" />
            <mxPoint x="289.5" y="141" as="targetPoint" />
          </mxGeometry>
        </mxCell>
        <mxCell id="0F0gUvnNwn2Jxng-bn7x-0" value="玩家A" style="html=1;fillColor=#1ba1e2;strokeColor=#006EAF;fontColor=#ffffff;" parent="Ed9yAN7DrSowhiWt8tNh-1" vertex="1">
          <mxGeometry x="210" y="130" width="160" height="20" as="geometry" />
        </mxCell>
        <mxCell id="0F0gUvnNwn2Jxng-bn7x-1" value="系统" style="html=1;fillColor=#1ba1e2;strokeColor=#006EAF;fontColor=#ffffff;" parent="Ed9yAN7DrSowhiWt8tNh-1" vertex="1">
          <mxGeometry x="370" y="130" width="160" height="20" as="geometry" />
        </mxCell>
        <mxCell id="Ko6KiRpkzFWjmpshx88s-3" value="" style="html=1;points=[];perimeter=orthogonalPerimeter;fontSize=15;strokeColor=#333333;verticalAlign=middle;" parent="Ed9yAN7DrSowhiWt8tNh-1" vertex="1">
          <mxGeometry x="275" y="160" width="30" height="460" as="geometry" />
        </mxCell>
        <mxCell id="Ko6KiRpkzFWjmpshx88s-10" value="" style="html=1;points=[];perimeter=orthogonalPerimeter;fontSize=15;strokeColor=#333333;verticalAlign=middle;" parent="Ed9yAN7DrSowhiWt8tNh-1" vertex="1">
          <mxGeometry x="430" y="180" width="30" height="90" as="geometry" />
        </mxCell>
        <mxCell id="Ko6KiRpkzFWjmpshx88s-11" value="" style="html=1;points=[];perimeter=orthogonalPerimeter;fontSize=15;strokeColor=#333333;verticalAlign=middle;" parent="Ed9yAN7DrSowhiWt8tNh-1" vertex="1">
          <mxGeometry x="430" y="290" width="30" height="90" as="geometry" />
        </mxCell>
        <mxCell id="Ko6KiRpkzFWjmpshx88s-12" value="" style="html=1;points=[];perimeter=orthogonalPerimeter;fontSize=15;strokeColor=#333333;verticalAlign=middle;" parent="Ed9yAN7DrSowhiWt8tNh-1" vertex="1">
          <mxGeometry x="430" y="400" width="30" height="90" as="geometry" />
        </mxCell>
        <mxCell id="Ko6KiRpkzFWjmpshx88s-13" value="" style="html=1;points=[];perimeter=orthogonalPerimeter;fontSize=15;strokeColor=#333333;verticalAlign=middle;" parent="Ed9yAN7DrSowhiWt8tNh-1" vertex="1">
          <mxGeometry x="430" y="510" width="30" height="90" as="geometry" />
        </mxCell>
        <mxCell id="Ko6KiRpkzFWjmpshx88s-15" value="" style="endArrow=classic;html=1;fontSize=15;strokeColor=#000103;strokeWidth=1;exitX=1.067;exitY=0.087;exitDx=0;exitDy=0;exitPerimeter=0;entryX=-0.1;entryY=0.222;entryDx=0;entryDy=0;entryPerimeter=0;" parent="Ed9yAN7DrSowhiWt8tNh-1" source="Ko6KiRpkzFWjmpshx88s-3" target="Ko6KiRpkzFWjmpshx88s-10" edge="1">
          <mxGeometry width="50" height="50" relative="1" as="geometry">
            <mxPoint x="380" y="240" as="sourcePoint" />
            <mxPoint x="430" y="190" as="targetPoint" />
          </mxGeometry>
        </mxCell>
        <mxCell id="Ko6KiRpkzFWjmpshx88s-16" value="查看用户列表" style="text;html=1;align=center;verticalAlign=middle;resizable=0;points=[];autosize=1;strokeColor=none;fontSize=15;" parent="Ed9yAN7DrSowhiWt8tNh-1" vertex="1">
          <mxGeometry x="310" y="180" width="110" height="20" as="geometry" />
        </mxCell>
        <mxCell id="Ko6KiRpkzFWjmpshx88s-17" value="" style="endArrow=classic;html=1;fontSize=15;strokeColor=#000103;strokeWidth=1;exitX=-0.1;exitY=0.422;exitDx=0;exitDy=0;exitPerimeter=0;" parent="Ed9yAN7DrSowhiWt8tNh-1" source="Ko6KiRpkzFWjmpshx88s-10" target="Ko6KiRpkzFWjmpshx88s-3" edge="1">
          <mxGeometry width="50" height="50" relative="1" as="geometry">
            <mxPoint x="320" y="280" as="sourcePoint" />
            <mxPoint x="370" y="230" as="targetPoint" />
          </mxGeometry>
        </mxCell>
        <mxCell id="Ko6KiRpkzFWjmpshx88s-18" value="返回用户列表" style="text;html=1;align=center;verticalAlign=middle;resizable=0;points=[];autosize=1;strokeColor=none;fontSize=15;" parent="Ed9yAN7DrSowhiWt8tNh-1" vertex="1">
          <mxGeometry x="310" y="220" width="110" height="20" as="geometry" />
        </mxCell>
        <mxCell id="Ko6KiRpkzFWjmpshx88s-20" value="" style="endArrow=classic;html=1;fontSize=15;strokeColor=#000103;strokeWidth=1;exitX=1.067;exitY=0.087;exitDx=0;exitDy=0;exitPerimeter=0;entryX=-0.1;entryY=0.222;entryDx=0;entryDy=0;entryPerimeter=0;" parent="Ed9yAN7DrSowhiWt8tNh-1" edge="1">
          <mxGeometry width="50" height="50" relative="1" as="geometry">
            <mxPoint x="307.01" y="325.02" as="sourcePoint" />
            <mxPoint x="427" y="324.98" as="targetPoint" />
          </mxGeometry>
        </mxCell>
        <mxCell id="Ko6KiRpkzFWjmpshx88s-21" value="查看对战列表" style="text;html=1;align=center;verticalAlign=middle;resizable=0;points=[];autosize=1;strokeColor=none;fontSize=15;" parent="Ed9yAN7DrSowhiWt8tNh-1" vertex="1">
          <mxGeometry x="310" y="305" width="110" height="20" as="geometry" />
        </mxCell>
        <mxCell id="Ko6KiRpkzFWjmpshx88s-22" value="" style="endArrow=classic;html=1;fontSize=15;strokeColor=#000103;strokeWidth=1;exitX=-0.1;exitY=0.422;exitDx=0;exitDy=0;exitPerimeter=0;" parent="Ed9yAN7DrSowhiWt8tNh-1" edge="1">
          <mxGeometry width="50" height="50" relative="1" as="geometry">
            <mxPoint x="427" y="342.98" as="sourcePoint" />
            <mxPoint x="305" y="342.98" as="targetPoint" />
          </mxGeometry>
        </mxCell>
        <mxCell id="Ko6KiRpkzFWjmpshx88s-23" value="返回对战列表" style="text;html=1;align=center;verticalAlign=middle;resizable=0;points=[];autosize=1;strokeColor=none;fontSize=15;" parent="Ed9yAN7DrSowhiWt8tNh-1" vertex="1">
          <mxGeometry x="310" y="345" width="110" height="20" as="geometry" />
        </mxCell>
        <mxCell id="Ko6KiRpkzFWjmpshx88s-24" value="" style="endArrow=classic;html=1;fontSize=15;strokeColor=#000103;strokeWidth=1;exitX=1.067;exitY=0.087;exitDx=0;exitDy=0;exitPerimeter=0;entryX=-0.1;entryY=0.222;entryDx=0;entryDy=0;entryPerimeter=0;" parent="Ed9yAN7DrSowhiWt8tNh-1" edge="1">
          <mxGeometry width="50" height="50" relative="1" as="geometry">
            <mxPoint x="310.01" y="435.02" as="sourcePoint" />
            <mxPoint x="430" y="434.98" as="targetPoint" />
          </mxGeometry>
        </mxCell>
        <mxCell id="Ko6KiRpkzFWjmpshx88s-25" value="查看服务器状态" style="text;html=1;align=center;verticalAlign=middle;resizable=0;points=[];autosize=1;strokeColor=none;fontSize=15;" parent="Ed9yAN7DrSowhiWt8tNh-1" vertex="1">
          <mxGeometry x="308" y="415" width="120" height="20" as="geometry" />
        </mxCell>
        <mxCell id="Ko6KiRpkzFWjmpshx88s-26" value="" style="endArrow=classic;html=1;fontSize=15;strokeColor=#000103;strokeWidth=1;exitX=-0.1;exitY=0.422;exitDx=0;exitDy=0;exitPerimeter=0;" parent="Ed9yAN7DrSowhiWt8tNh-1" edge="1">
          <mxGeometry width="50" height="50" relative="1" as="geometry">
            <mxPoint x="430" y="452.98" as="sourcePoint" />
            <mxPoint x="308" y="452.98" as="targetPoint" />
          </mxGeometry>
        </mxCell>
        <mxCell id="Ko6KiRpkzFWjmpshx88s-27" value="返回服务器状态" style="text;html=1;align=center;verticalAlign=middle;resizable=0;points=[];autosize=1;strokeColor=none;fontSize=15;" parent="Ed9yAN7DrSowhiWt8tNh-1" vertex="1">
          <mxGeometry x="308" y="455" width="120" height="20" as="geometry" />
        </mxCell>
        <mxCell id="Ko6KiRpkzFWjmpshx88s-28" value="" style="endArrow=classic;html=1;fontSize=15;strokeColor=#000103;strokeWidth=1;exitX=1.067;exitY=0.087;exitDx=0;exitDy=0;exitPerimeter=0;entryX=-0.1;entryY=0.222;entryDx=0;entryDy=0;entryPerimeter=0;" parent="Ed9yAN7DrSowhiWt8tNh-1" edge="1">
          <mxGeometry width="50" height="50" relative="1" as="geometry">
            <mxPoint x="308.01" y="545.02" as="sourcePoint" />
            <mxPoint x="428" y="544.98" as="targetPoint" />
          </mxGeometry>
        </mxCell>
        <mxCell id="Ko6KiRpkzFWjmpshx88s-29" value="服务器维护" style="text;html=1;align=center;verticalAlign=middle;resizable=0;points=[];autosize=1;strokeColor=none;fontSize=15;" parent="Ed9yAN7DrSowhiWt8tNh-1" vertex="1">
          <mxGeometry x="321" y="525" width="90" height="20" as="geometry" />
        </mxCell>
      </root>
    </mxGraphModel>
  </diagram>
  <diagram id="ycTywWH3n9vURscVJjlH" name="Page-5">
    <mxGraphModel dx="1038" dy="536" grid="1" gridSize="10" guides="1" tooltips="1" connect="1" arrows="1" fold="1" page="1" pageScale="1" pageWidth="827" pageHeight="1169" math="0" shadow="0">
      <root>
        <mxCell id="YYiFzvEHqdIJhX35HsVr-0" />
        <mxCell id="YYiFzvEHqdIJhX35HsVr-1" parent="YYiFzvEHqdIJhX35HsVr-0" />
        <mxCell id="YYiFzvEHqdIJhX35HsVr-2" value="Actor" style="shape=umlActor;verticalLabelPosition=bottom;verticalAlign=top;html=1;outlineConnect=0;" parent="YYiFzvEHqdIJhX35HsVr-1" vertex="1">
          <mxGeometry x="315" y="390" width="30" height="60" as="geometry" />
        </mxCell>
        <mxCell id="YYiFzvEHqdIJhX35HsVr-3" value="" style="rounded=0;whiteSpace=wrap;html=1;dashed=1;" parent="YYiFzvEHqdIJhX35HsVr-1" vertex="1">
          <mxGeometry x="110" y="250" width="430" height="60" as="geometry" />
        </mxCell>
        <mxCell id="YYiFzvEHqdIJhX35HsVr-4" style="edgeStyle=none;rounded=0;orthogonalLoop=1;jettySize=auto;html=1;exitX=0.5;exitY=1;exitDx=0;exitDy=0;startArrow=openThin;startFill=0;endArrow=none;endFill=0;" parent="YYiFzvEHqdIJhX35HsVr-1" source="YYiFzvEHqdIJhX35HsVr-5" edge="1">
          <mxGeometry relative="1" as="geometry">
            <mxPoint x="300" y="396" as="targetPoint" />
          </mxGeometry>
        </mxCell>
        <mxCell id="YYiFzvEHqdIJhX35HsVr-5" value="用户列表" style="rounded=0;whiteSpace=wrap;html=1;" parent="YYiFzvEHqdIJhX35HsVr-1" vertex="1">
          <mxGeometry x="160" y="260" width="100" height="40" as="geometry" />
        </mxCell>
        <mxCell id="YYiFzvEHqdIJhX35HsVr-6" value="&lt;span style=&quot;white-space: pre&quot;&gt;&lt;/span&gt;对战列表" style="rounded=0;whiteSpace=wrap;html=1;" parent="YYiFzvEHqdIJhX35HsVr-1" vertex="1">
          <mxGeometry x="280" y="260" width="100" height="40" as="geometry" />
        </mxCell>
        <mxCell id="YYiFzvEHqdIJhX35HsVr-7" value="服务器状态" style="rounded=0;whiteSpace=wrap;html=1;" parent="YYiFzvEHqdIJhX35HsVr-1" vertex="1">
          <mxGeometry x="400" y="260" width="100" height="40" as="geometry" />
        </mxCell>
        <mxCell id="YYiFzvEHqdIJhX35HsVr-8" style="edgeStyle=none;rounded=0;orthogonalLoop=1;jettySize=auto;html=1;exitX=0.5;exitY=1;exitDx=0;exitDy=0;startArrow=none;startFill=0;endArrow=openThin;endFill=0;" parent="YYiFzvEHqdIJhX35HsVr-1" edge="1">
          <mxGeometry relative="1" as="geometry">
            <mxPoint x="204" y="304" as="sourcePoint" />
            <mxPoint x="294" y="400" as="targetPoint" />
          </mxGeometry>
        </mxCell>
        <mxCell id="YYiFzvEHqdIJhX35HsVr-9" value="1" style="ellipse;whiteSpace=wrap;html=1;aspect=fixed;strokeWidth=2;fontFamily=Tahoma;spacingBottom=4;spacingRight=2;fillColor=#b1ddf0;strokeColor=none;" parent="YYiFzvEHqdIJhX35HsVr-1" vertex="1">
          <mxGeometry x="220" y="350" width="20" height="20" as="geometry" />
        </mxCell>
        <mxCell id="YYiFzvEHqdIJhX35HsVr-10" value="2" style="ellipse;whiteSpace=wrap;html=1;aspect=fixed;strokeWidth=2;fontFamily=Tahoma;spacingBottom=4;spacingRight=2;fillColor=#b1ddf0;strokeColor=none;" parent="YYiFzvEHqdIJhX35HsVr-1" vertex="1">
          <mxGeometry x="256" y="327" width="20" height="20" as="geometry" />
        </mxCell>
        <mxCell id="YYiFzvEHqdIJhX35HsVr-11" style="edgeStyle=none;rounded=0;orthogonalLoop=1;jettySize=auto;html=1;startArrow=none;startFill=0;endArrow=openThin;endFill=0;" parent="YYiFzvEHqdIJhX35HsVr-1" edge="1">
          <mxGeometry relative="1" as="geometry">
            <mxPoint x="324" y="300" as="sourcePoint" />
            <mxPoint x="324" y="380" as="targetPoint" />
          </mxGeometry>
        </mxCell>
        <mxCell id="YYiFzvEHqdIJhX35HsVr-12" style="edgeStyle=none;rounded=0;orthogonalLoop=1;jettySize=auto;html=1;startArrow=openThin;startFill=0;endArrow=none;endFill=0;" parent="YYiFzvEHqdIJhX35HsVr-1" edge="1">
          <mxGeometry relative="1" as="geometry">
            <mxPoint x="330" y="300" as="sourcePoint" />
            <mxPoint x="330" y="380" as="targetPoint" />
          </mxGeometry>
        </mxCell>
        <mxCell id="YYiFzvEHqdIJhX35HsVr-13" value="3" style="ellipse;whiteSpace=wrap;html=1;aspect=fixed;strokeWidth=2;fontFamily=Tahoma;spacingBottom=4;spacingRight=2;fillColor=#b1ddf0;strokeColor=none;" parent="YYiFzvEHqdIJhX35HsVr-1" vertex="1">
          <mxGeometry x="300" y="340" width="20" height="20" as="geometry" />
        </mxCell>
        <mxCell id="YYiFzvEHqdIJhX35HsVr-14" value="4" style="ellipse;whiteSpace=wrap;html=1;aspect=fixed;strokeWidth=2;fontFamily=Tahoma;spacingBottom=4;spacingRight=2;fillColor=#b1ddf0;strokeColor=none;" parent="YYiFzvEHqdIJhX35HsVr-1" vertex="1">
          <mxGeometry x="336" y="340" width="20" height="20" as="geometry" />
        </mxCell>
        <mxCell id="YYiFzvEHqdIJhX35HsVr-15" style="edgeStyle=none;rounded=0;orthogonalLoop=1;jettySize=auto;html=1;startArrow=none;startFill=0;endArrow=openThin;endFill=0;" parent="YYiFzvEHqdIJhX35HsVr-1" edge="1">
          <mxGeometry relative="1" as="geometry">
            <mxPoint x="441.33333333333326" y="300" as="sourcePoint" />
            <mxPoint x="358" y="400" as="targetPoint" />
          </mxGeometry>
        </mxCell>
        <mxCell id="YYiFzvEHqdIJhX35HsVr-16" style="edgeStyle=none;rounded=0;orthogonalLoop=1;jettySize=auto;html=1;startArrow=openThin;startFill=0;endArrow=none;endFill=0;" parent="YYiFzvEHqdIJhX35HsVr-1" edge="1">
          <mxGeometry relative="1" as="geometry">
            <mxPoint x="449.33333333333326" y="304" as="sourcePoint" />
            <mxPoint x="366" y="404" as="targetPoint" />
          </mxGeometry>
        </mxCell>
        <mxCell id="YYiFzvEHqdIJhX35HsVr-17" value="5" style="ellipse;whiteSpace=wrap;html=1;aspect=fixed;strokeWidth=2;fontFamily=Tahoma;spacingBottom=4;spacingRight=2;fillColor=#b1ddf0;strokeColor=none;" parent="YYiFzvEHqdIJhX35HsVr-1" vertex="1">
          <mxGeometry x="380" y="330" width="20" height="20" as="geometry" />
        </mxCell>
        <mxCell id="YYiFzvEHqdIJhX35HsVr-18" value="6" style="ellipse;whiteSpace=wrap;html=1;aspect=fixed;strokeWidth=2;fontFamily=Tahoma;spacingBottom=4;spacingRight=2;fillColor=#b1ddf0;strokeColor=none;" parent="YYiFzvEHqdIJhX35HsVr-1" vertex="1">
          <mxGeometry x="413" y="351" width="20" height="20" as="geometry" />
        </mxCell>
      </root>
    </mxGraphModel>
  </diagram>
  <diagram id="Be-HR9w_ULLrbg_5jZKj" name="Page-6">
    <mxGraphModel dx="1038" dy="536" grid="1" gridSize="10" guides="1" tooltips="1" connect="1" arrows="1" fold="1" page="1" pageScale="1" pageWidth="827" pageHeight="1169" math="0" shadow="0">
      <root>
        <mxCell id="sWlz5vCtNr2DuR0UAMmm-0" />
        <mxCell id="sWlz5vCtNr2DuR0UAMmm-1" parent="sWlz5vCtNr2DuR0UAMmm-0" />
        <mxCell id="sWlz5vCtNr2DuR0UAMmm-51" style="edgeStyle=orthogonalEdgeStyle;rounded=0;orthogonalLoop=1;jettySize=auto;html=1;exitX=1;exitY=0.5;exitDx=0;exitDy=0;entryX=0;entryY=0.5;entryDx=0;entryDy=0;fontSize=15;startArrow=none;startFill=0;endArrow=classic;endFill=1;" edge="1" parent="sWlz5vCtNr2DuR0UAMmm-1" source="sWlz5vCtNr2DuR0UAMmm-33" target="sWlz5vCtNr2DuR0UAMmm-49">
          <mxGeometry relative="1" as="geometry" />
        </mxCell>
        <mxCell id="sWlz5vCtNr2DuR0UAMmm-33" value="" style="rounded=0;whiteSpace=wrap;html=1;dashed=1;fillColor=#EAF6FC;" vertex="1" parent="sWlz5vCtNr2DuR0UAMmm-1">
          <mxGeometry x="710" y="270" width="140" height="170" as="geometry" />
        </mxCell>
        <mxCell id="sWlz5vCtNr2DuR0UAMmm-8" value="" style="rounded=0;whiteSpace=wrap;html=1;fontSize=15;dashed=1;strokeColor=#6c8ebf;fillColor=#EAF6FC;" vertex="1" parent="sWlz5vCtNr2DuR0UAMmm-1">
          <mxGeometry x="370" y="105" width="320" height="335" as="geometry" />
        </mxCell>
        <mxCell id="sWlz5vCtNr2DuR0UAMmm-3" value="" style="rounded=0;whiteSpace=wrap;html=1;dashed=1;strokeColor=#666666;fontColor=#333333;fillColor=#EAF6FC;" vertex="1" parent="sWlz5vCtNr2DuR0UAMmm-1">
          <mxGeometry x="200" y="152.5" width="150" height="240" as="geometry" />
        </mxCell>
        <mxCell id="sWlz5vCtNr2DuR0UAMmm-20" style="edgeStyle=orthogonalEdgeStyle;rounded=0;orthogonalLoop=1;jettySize=auto;html=1;exitX=1;exitY=0.5;exitDx=0;exitDy=0;entryX=0;entryY=0.75;entryDx=0;entryDy=0;fontSize=15;startArrow=classic;startFill=1;endArrow=none;endFill=0;" edge="1" parent="sWlz5vCtNr2DuR0UAMmm-1" source="sWlz5vCtNr2DuR0UAMmm-2" target="sWlz5vCtNr2DuR0UAMmm-14">
          <mxGeometry relative="1" as="geometry">
            <Array as="points">
              <mxPoint x="414" y="250" />
            </Array>
          </mxGeometry>
        </mxCell>
        <mxCell id="sWlz5vCtNr2DuR0UAMmm-2" value="查询在线用户列表" style="rounded=0;whiteSpace=wrap;html=1;strokeColor=#82b366;fillColor=#C8F5FA;" vertex="1" parent="sWlz5vCtNr2DuR0UAMmm-1">
          <mxGeometry x="225" y="230" width="100" height="40" as="geometry" />
        </mxCell>
        <mxCell id="sWlz5vCtNr2DuR0UAMmm-4" value="&lt;font style=&quot;font-size: 15px;&quot;&gt;产生动作&lt;/font&gt;" style="text;html=1;align=center;verticalAlign=middle;resizable=0;points=[];autosize=1;strokeColor=none;fontSize=15;" vertex="1" parent="sWlz5vCtNr2DuR0UAMmm-1">
          <mxGeometry x="200" y="130" width="80" height="20" as="geometry" />
        </mxCell>
        <mxCell id="sWlz5vCtNr2DuR0UAMmm-48" style="edgeStyle=orthogonalEdgeStyle;rounded=0;orthogonalLoop=1;jettySize=auto;html=1;exitX=1;exitY=0.5;exitDx=0;exitDy=0;entryX=0;entryY=0.5;entryDx=0;entryDy=0;fontSize=15;startArrow=none;startFill=0;endArrow=classic;endFill=1;" edge="1" parent="sWlz5vCtNr2DuR0UAMmm-1" source="sWlz5vCtNr2DuR0UAMmm-5" target="sWlz5vCtNr2DuR0UAMmm-3">
          <mxGeometry relative="1" as="geometry" />
        </mxCell>
        <mxCell id="sWlz5vCtNr2DuR0UAMmm-5" value="&lt;font style=&quot;font-size: 15px&quot;&gt;用户A&lt;/font&gt;" style="rounded=0;whiteSpace=wrap;html=1;strokeColor=#82b366;fillColor=#C8F5FA;" vertex="1" parent="sWlz5vCtNr2DuR0UAMmm-1">
          <mxGeometry x="80" y="252" width="100" height="40" as="geometry" />
        </mxCell>
        <mxCell id="sWlz5vCtNr2DuR0UAMmm-28" style="edgeStyle=orthogonalEdgeStyle;rounded=0;orthogonalLoop=1;jettySize=auto;html=1;exitX=1;exitY=0.5;exitDx=0;exitDy=0;entryX=0;entryY=0.5;entryDx=0;entryDy=0;fontSize=15;startArrow=none;startFill=0;endArrow=classic;endFill=1;" edge="1" parent="sWlz5vCtNr2DuR0UAMmm-1" source="sWlz5vCtNr2DuR0UAMmm-6" target="sWlz5vCtNr2DuR0UAMmm-22">
          <mxGeometry relative="1" as="geometry" />
        </mxCell>
        <mxCell id="sWlz5vCtNr2DuR0UAMmm-6" value="落子" style="rounded=0;whiteSpace=wrap;html=1;strokeColor=#82b366;fillColor=#C8F5FA;" vertex="1" parent="sWlz5vCtNr2DuR0UAMmm-1">
          <mxGeometry x="225" y="280" width="100" height="40" as="geometry" />
        </mxCell>
        <mxCell id="sWlz5vCtNr2DuR0UAMmm-32" style="edgeStyle=orthogonalEdgeStyle;rounded=0;orthogonalLoop=1;jettySize=auto;html=1;exitX=1;exitY=0.5;exitDx=0;exitDy=0;entryX=0;entryY=0.5;entryDx=0;entryDy=0;fontSize=15;startArrow=none;startFill=0;endArrow=classic;endFill=1;" edge="1" parent="sWlz5vCtNr2DuR0UAMmm-1" source="sWlz5vCtNr2DuR0UAMmm-7" target="sWlz5vCtNr2DuR0UAMmm-31">
          <mxGeometry relative="1" as="geometry">
            <Array as="points">
              <mxPoint x="360" y="350" />
              <mxPoint x="360" y="410" />
            </Array>
          </mxGeometry>
        </mxCell>
        <mxCell id="sWlz5vCtNr2DuR0UAMmm-7" value="输入聊天消息" style="rounded=0;whiteSpace=wrap;html=1;strokeColor=#82b366;fillColor=#C8F5FA;" vertex="1" parent="sWlz5vCtNr2DuR0UAMmm-1">
          <mxGeometry x="225" y="330" width="100" height="40" as="geometry" />
        </mxCell>
        <mxCell id="sWlz5vCtNr2DuR0UAMmm-9" value="" style="endArrow=none;html=1;fontSize=15;" edge="1" parent="sWlz5vCtNr2DuR0UAMmm-1">
          <mxGeometry width="50" height="50" relative="1" as="geometry">
            <mxPoint x="404" y="130" as="sourcePoint" />
            <mxPoint x="524" y="130" as="targetPoint" />
          </mxGeometry>
        </mxCell>
        <mxCell id="sWlz5vCtNr2DuR0UAMmm-10" value="" style="endArrow=none;html=1;fontSize=15;" edge="1" parent="sWlz5vCtNr2DuR0UAMmm-1">
          <mxGeometry width="50" height="50" relative="1" as="geometry">
            <mxPoint x="404" y="160" as="sourcePoint" />
            <mxPoint x="524" y="160" as="targetPoint" />
          </mxGeometry>
        </mxCell>
        <mxCell id="sWlz5vCtNr2DuR0UAMmm-15" value="" style="edgeStyle=orthogonalEdgeStyle;rounded=0;orthogonalLoop=1;jettySize=auto;html=1;fontSize=15;startArrow=classic;startFill=1;" edge="1" parent="sWlz5vCtNr2DuR0UAMmm-1" target="sWlz5vCtNr2DuR0UAMmm-14">
          <mxGeometry relative="1" as="geometry">
            <mxPoint x="464" y="160" as="sourcePoint" />
          </mxGeometry>
        </mxCell>
        <mxCell id="sWlz5vCtNr2DuR0UAMmm-11" value="&lt;font style=&quot;font-size: 12px&quot;&gt;在线列表信息&lt;/font&gt;" style="text;html=1;strokeColor=#36393d;fillColor=#cce5ff;align=center;verticalAlign=middle;whiteSpace=wrap;rounded=0;fontSize=15;" vertex="1" parent="sWlz5vCtNr2DuR0UAMmm-1">
          <mxGeometry x="404" y="135" width="120" height="20" as="geometry" />
        </mxCell>
        <mxCell id="sWlz5vCtNr2DuR0UAMmm-18" style="edgeStyle=orthogonalEdgeStyle;rounded=0;orthogonalLoop=1;jettySize=auto;html=1;exitX=1;exitY=0.5;exitDx=0;exitDy=0;entryX=0;entryY=0.25;entryDx=0;entryDy=0;fontSize=15;startArrow=none;startFill=0;" edge="1" parent="sWlz5vCtNr2DuR0UAMmm-1" source="sWlz5vCtNr2DuR0UAMmm-12" target="sWlz5vCtNr2DuR0UAMmm-14">
          <mxGeometry relative="1" as="geometry">
            <Array as="points">
              <mxPoint x="414" y="200" />
            </Array>
          </mxGeometry>
        </mxCell>
        <mxCell id="sWlz5vCtNr2DuR0UAMmm-12" value="登录" style="rounded=0;whiteSpace=wrap;html=1;strokeColor=#82b366;fillColor=#C8F5FA;" vertex="1" parent="sWlz5vCtNr2DuR0UAMmm-1">
          <mxGeometry x="225" y="180" width="100" height="40" as="geometry" />
        </mxCell>
        <mxCell id="sWlz5vCtNr2DuR0UAMmm-14" value="在线用户维护" style="rounded=0;whiteSpace=wrap;html=1;strokeColor=#82b366;fillColor=#C8F5FA;" vertex="1" parent="sWlz5vCtNr2DuR0UAMmm-1">
          <mxGeometry x="414" y="180" width="100" height="80" as="geometry" />
        </mxCell>
        <mxCell id="sWlz5vCtNr2DuR0UAMmm-16" value="处理信息" style="text;html=1;align=center;verticalAlign=middle;resizable=0;points=[];autosize=1;strokeColor=none;fontSize=15;" vertex="1" parent="sWlz5vCtNr2DuR0UAMmm-1">
          <mxGeometry x="370" y="80" width="80" height="20" as="geometry" />
        </mxCell>
        <mxCell id="sWlz5vCtNr2DuR0UAMmm-19" value="&lt;font style=&quot;font-size: 12px&quot;&gt;登录信息&lt;/font&gt;" style="text;html=1;align=center;verticalAlign=middle;resizable=0;points=[];autosize=1;strokeColor=none;fontSize=15;" vertex="1" parent="sWlz5vCtNr2DuR0UAMmm-1">
          <mxGeometry x="335" y="180" width="60" height="20" as="geometry" />
        </mxCell>
        <mxCell id="sWlz5vCtNr2DuR0UAMmm-21" value="&lt;font style=&quot;font-size: 12px&quot;&gt;用户信息&lt;/font&gt;" style="text;html=1;align=center;verticalAlign=middle;resizable=0;points=[];autosize=1;strokeColor=none;fontSize=15;" vertex="1" parent="sWlz5vCtNr2DuR0UAMmm-1">
          <mxGeometry x="334" y="230" width="60" height="20" as="geometry" />
        </mxCell>
        <mxCell id="sWlz5vCtNr2DuR0UAMmm-26" style="edgeStyle=orthogonalEdgeStyle;rounded=0;orthogonalLoop=1;jettySize=auto;html=1;exitX=0.5;exitY=1;exitDx=0;exitDy=0;fontSize=15;startArrow=classic;startFill=1;endArrow=none;endFill=0;" edge="1" parent="sWlz5vCtNr2DuR0UAMmm-1" source="sWlz5vCtNr2DuR0UAMmm-22">
          <mxGeometry relative="1" as="geometry">
            <mxPoint x="464" y="340" as="targetPoint" />
          </mxGeometry>
        </mxCell>
        <mxCell id="sWlz5vCtNr2DuR0UAMmm-30" style="edgeStyle=orthogonalEdgeStyle;rounded=0;orthogonalLoop=1;jettySize=auto;html=1;exitX=1;exitY=0.5;exitDx=0;exitDy=0;entryX=0;entryY=0.5;entryDx=0;entryDy=0;fontSize=15;startArrow=none;startFill=0;endArrow=classic;endFill=1;" edge="1" parent="sWlz5vCtNr2DuR0UAMmm-1" source="sWlz5vCtNr2DuR0UAMmm-22" target="sWlz5vCtNr2DuR0UAMmm-29">
          <mxGeometry relative="1" as="geometry" />
        </mxCell>
        <mxCell id="sWlz5vCtNr2DuR0UAMmm-22" value="游戏信息解析" style="rounded=0;whiteSpace=wrap;html=1;strokeColor=#82b366;fillColor=#C8F5FA;" vertex="1" parent="sWlz5vCtNr2DuR0UAMmm-1">
          <mxGeometry x="414" y="280" width="100" height="40" as="geometry" />
        </mxCell>
        <mxCell id="sWlz5vCtNr2DuR0UAMmm-23" value="" style="endArrow=none;html=1;fontSize=15;" edge="1" parent="sWlz5vCtNr2DuR0UAMmm-1">
          <mxGeometry width="50" height="50" relative="1" as="geometry">
            <mxPoint x="404" y="343" as="sourcePoint" />
            <mxPoint x="524" y="343" as="targetPoint" />
          </mxGeometry>
        </mxCell>
        <mxCell id="sWlz5vCtNr2DuR0UAMmm-24" value="" style="endArrow=none;html=1;fontSize=15;" edge="1" parent="sWlz5vCtNr2DuR0UAMmm-1">
          <mxGeometry width="50" height="50" relative="1" as="geometry">
            <mxPoint x="404" y="373" as="sourcePoint" />
            <mxPoint x="524" y="373" as="targetPoint" />
          </mxGeometry>
        </mxCell>
        <mxCell id="sWlz5vCtNr2DuR0UAMmm-27" value="" style="edgeStyle=orthogonalEdgeStyle;rounded=0;orthogonalLoop=1;jettySize=auto;html=1;fontSize=15;startArrow=classic;startFill=1;endArrow=none;endFill=0;" edge="1" parent="sWlz5vCtNr2DuR0UAMmm-1" target="sWlz5vCtNr2DuR0UAMmm-22">
          <mxGeometry relative="1" as="geometry">
            <mxPoint x="464" y="340" as="sourcePoint" />
          </mxGeometry>
        </mxCell>
        <mxCell id="sWlz5vCtNr2DuR0UAMmm-25" value="&lt;font style=&quot;font-size: 12px&quot;&gt;游戏信息&lt;/font&gt;" style="text;html=1;strokeColor=#36393d;fillColor=#cce5ff;align=center;verticalAlign=middle;whiteSpace=wrap;rounded=0;fontSize=15;" vertex="1" parent="sWlz5vCtNr2DuR0UAMmm-1">
          <mxGeometry x="404" y="348" width="120" height="20" as="geometry" />
        </mxCell>
        <mxCell id="sWlz5vCtNr2DuR0UAMmm-40" style="edgeStyle=orthogonalEdgeStyle;rounded=0;orthogonalLoop=1;jettySize=auto;html=1;exitX=1;exitY=0.5;exitDx=0;exitDy=0;entryX=0;entryY=0.5;entryDx=0;entryDy=0;fontSize=15;startArrow=none;startFill=0;endArrow=classic;endFill=1;" edge="1" parent="sWlz5vCtNr2DuR0UAMmm-1" source="sWlz5vCtNr2DuR0UAMmm-29" target="sWlz5vCtNr2DuR0UAMmm-36">
          <mxGeometry relative="1" as="geometry" />
        </mxCell>
        <mxCell id="sWlz5vCtNr2DuR0UAMmm-29" value="游戏信息转发" style="rounded=0;whiteSpace=wrap;html=1;strokeColor=#82b366;fillColor=#C8F5FA;" vertex="1" parent="sWlz5vCtNr2DuR0UAMmm-1">
          <mxGeometry x="550" y="280" width="100" height="40" as="geometry" />
        </mxCell>
        <mxCell id="sWlz5vCtNr2DuR0UAMmm-41" style="edgeStyle=orthogonalEdgeStyle;rounded=0;orthogonalLoop=1;jettySize=auto;html=1;exitX=1;exitY=0.5;exitDx=0;exitDy=0;entryX=0;entryY=0.5;entryDx=0;entryDy=0;fontSize=15;startArrow=none;startFill=0;endArrow=classic;endFill=1;" edge="1" parent="sWlz5vCtNr2DuR0UAMmm-1" source="sWlz5vCtNr2DuR0UAMmm-31" target="sWlz5vCtNr2DuR0UAMmm-37">
          <mxGeometry relative="1" as="geometry" />
        </mxCell>
        <mxCell id="sWlz5vCtNr2DuR0UAMmm-31" value="聊天信息转发" style="rounded=0;whiteSpace=wrap;html=1;strokeColor=#82b366;fillColor=#C8F5FA;" vertex="1" parent="sWlz5vCtNr2DuR0UAMmm-1">
          <mxGeometry x="550" y="390" width="100" height="40" as="geometry" />
        </mxCell>
        <mxCell id="sWlz5vCtNr2DuR0UAMmm-35" value="消息接收" style="text;html=1;align=center;verticalAlign=middle;resizable=0;points=[];autosize=1;strokeColor=none;fontSize=15;" vertex="1" parent="sWlz5vCtNr2DuR0UAMmm-1">
          <mxGeometry x="710" y="250" width="80" height="20" as="geometry" />
        </mxCell>
        <mxCell id="sWlz5vCtNr2DuR0UAMmm-36" value="解析落子信息" style="rounded=0;whiteSpace=wrap;html=1;strokeColor=#82b366;fillColor=#C8F5FA;" vertex="1" parent="sWlz5vCtNr2DuR0UAMmm-1">
          <mxGeometry x="730" y="280" width="100" height="40" as="geometry" />
        </mxCell>
        <mxCell id="sWlz5vCtNr2DuR0UAMmm-37" value="接受聊天信息" style="rounded=0;whiteSpace=wrap;html=1;strokeColor=#82b366;fillColor=#C8F5FA;" vertex="1" parent="sWlz5vCtNr2DuR0UAMmm-1">
          <mxGeometry x="735" y="390" width="100" height="40" as="geometry" />
        </mxCell>
        <mxCell id="sWlz5vCtNr2DuR0UAMmm-49" value="&lt;font style=&quot;font-size: 15px&quot;&gt;用户B&lt;/font&gt;" style="rounded=0;whiteSpace=wrap;html=1;strokeColor=#82b366;fillColor=#C8F5FA;" vertex="1" parent="sWlz5vCtNr2DuR0UAMmm-1">
          <mxGeometry x="870" y="335" width="100" height="40" as="geometry" />
        </mxCell>
      </root>
    </mxGraphModel>
  </diagram>
</mxfile>
>>>>>>> 12986d06cdd15c9ac4016e8a3b16ebf91fc5c7af
